<?xml version="1.0" standalone="no"?>
<!DOCTYPE svg PUBLIC "-//W3C//DTD SVG 20010904//EN"
 "http://www.w3.org/TR/2001/REC-SVG-20010904/DTD/svg10.dtd">
<svg version="1.0" xmlns="http://www.w3.org/2000/svg"
 width="1024.000000pt" height="1024.000000pt" viewBox="0 0 1024.000000 1024.000000"
 preserveAspectRatio="xMidYMid meet">

<g transform="translate(0.000000,1024.000000) scale(0.100000,-0.100000)"
fill="#000000" stroke="none">
<path d="M5230 6398 c-14 -5 -65 -20 -114 -32 -95 -24 -116 -40 -67 -51 17 -4
40 -18 51 -32 19 -25 20 -40 20 -503 0 -533 3 -514 -69 -529 -19 -3 -36 -12
-38 -18 -3 -8 49 -11 186 -11 154 1 191 4 191 14 0 8 -11 14 -24 14 -14 0 -38
11 -53 24 l-28 24 -3 556 c-2 423 -6 556 -15 555 -7 0 -23 -5 -37 -11z"/>
<path d="M1590 6304 c0 -6 22 -14 48 -18 34 -4 56 -14 73 -32 l24 -26 0 -464
0 -463 -22 -23 c-14 -14 -40 -24 -69 -28 -26 -3 -49 -11 -52 -17 -3 -10 52
-13 252 -13 154 0 257 4 261 10 6 10 -14 16 -83 24 -51 5 -77 26 -91 70 -5 17
-11 235 -13 491 l-3 460 51 9 c114 19 238 -37 284 -129 22 -43 25 -63 25 -145
-1 -118 -21 -182 -73 -232 -52 -50 -77 -61 -156 -67 -42 -4 -71 -11 -74 -18
-5 -19 126 -17 207 2 180 43 281 161 281 329 0 94 -16 134 -74 192 -41 42 -65
56 -121 74 -66 21 -88 23 -372 24 -218 1 -303 -2 -303 -10z"/>
<path d="M6223 6305 c2 -5 19 -12 38 -16 45 -7 76 -25 91 -52 14 -25 12 -894
-2 -931 -12 -34 -38 -50 -88 -56 -25 -3 -47 -10 -49 -16 -3 -8 61 -11 227 -11
211 0 274 7 203 23 -53 11 -84 27 -96 48 -17 29 -24 915 -7 945 13 25 52 46
103 55 85 16 24 22 -193 22 -148 -1 -229 -5 -227 -11z"/>
<path d="M6860 6303 c0 -7 9 -13 20 -13 31 0 80 -28 80 -46 0 -37 -44 -91
-221 -269 l-189 -190 183 -236 c100 -130 198 -255 217 -277 l35 -40 163 -7
c144 -6 162 -5 162 9 0 9 -8 16 -17 16 -39 0 -96 23 -128 52 -46 39 -289 339
-448 549 l-27 36 178 166 c97 92 194 178 215 192 20 14 66 33 102 42 36 9 65
19 65 23 0 4 -88 7 -195 7 -154 -1 -195 -4 -195 -14z"/>
<path d="M4685 6288 c-32 -19 -44 -40 -45 -81 0 -94 70 -143 149 -102 33 17
41 33 41 84 0 36 -19 74 -50 98 -19 16 -69 16 -95 1z"/>
<path d="M4191 6093 c-38 -80 -88 -131 -164 -164 -74 -31 -74 -49 -2 -49 l55
0 0 -275 c0 -311 5 -338 67 -376 69 -43 234 -19 288 41 27 30 9 42 -28 20 -46
-28 -109 -26 -144 4 l-28 24 0 279 0 278 117 3 c96 2 117 5 122 19 4 9 5 17 4
18 -2 2 -56 5 -120 7 l-118 3 0 118 c0 64 -4 117 -9 117 -5 0 -23 -30 -40 -67z"/>
<path d="M7574 5942 c-114 -40 -200 -117 -252 -222 -24 -49 -27 -66 -27 -160
0 -93 3 -111 27 -162 37 -80 108 -152 187 -191 61 -30 74 -32 166 -32 93 0
105 2 165 32 85 42 155 112 194 193 29 60 31 73 31 170 0 93 -3 112 -27 162
-37 79 -108 152 -185 190 -83 41 -199 49 -279 20z m246 -65 c75 -39 133 -98
166 -171 23 -50 28 -75 28 -141 1 -104 -22 -169 -82 -236 -93 -104 -235 -138
-368 -88 -81 30 -164 114 -193 194 -41 110 -26 248 35 337 29 42 112 102 170
124 63 23 178 14 244 -19z"/>
<path d="M3471 5939 c-59 -10 -143 -49 -179 -82 -31 -29 -62 -90 -62 -122 0
-61 79 -86 125 -40 19 18 25 35 25 67 0 90 63 154 143 144 78 -9 107 -63 107
-198 l0 -93 -103 -29 c-128 -36 -237 -87 -271 -126 -32 -39 -49 -100 -40 -146
25 -134 226 -151 377 -32 30 25 42 29 45 18 3 -8 21 -32 41 -53 30 -32 44 -39
74 -39 45 0 120 35 147 69 26 33 14 51 -15 23 -34 -32 -76 -24 -97 20 -16 30
-18 66 -18 264 0 211 -2 233 -21 272 -15 31 -32 48 -62 63 -51 24 -144 32
-216 20z m157 -476 l-3 -118 -55 -32 c-74 -45 -138 -46 -181 -4 -54 55 -32
142 50 197 39 26 153 72 179 73 10 1 12 -26 10 -116z"/>
<path d="M4725 5925 c-33 -13 -84 -29 -112 -35 -61 -13 -74 -40 -20 -40 17 0
38 -4 46 -9 23 -15 29 -108 22 -339 -6 -209 -7 -214 -30 -233 -13 -10 -36 -19
-52 -19 -19 0 -29 -5 -29 -15 0 -13 27 -15 184 -15 113 0 187 4 191 10 3 6 -2
13 -12 16 -53 17 -72 27 -80 42 -4 10 -10 161 -13 337 -4 274 -7 320 -20 321
-8 1 -42 -9 -75 -21z"/>
<path d="M8485 5936 c-117 -30 -213 -107 -265 -212 -98 -199 -10 -435 190
-511 25 -9 46 -18 48 -19 2 -1 -6 -20 -17 -43 -27 -51 -27 -51 8 -51 16 0 39
-10 55 -25 51 -48 25 -145 -40 -145 -27 0 -65 16 -76 33 -7 11 -38 -8 -38 -23
0 -19 91 -43 141 -37 61 7 93 26 119 70 50 81 -5 167 -105 167 l-36 0 15 29
c13 24 22 29 72 34 31 3 80 17 109 32 55 27 135 104 135 130 0 21 -2 20 -44
-20 -41 -39 -88 -55 -161 -55 -169 0 -301 190 -268 385 19 109 66 183 138 216
86 40 142 13 193 -91 30 -61 56 -73 98 -46 34 23 33 83 -1 124 -48 57 -172 84
-270 58z"/>
<path d="M2726 5915 c-27 -13 -77 -29 -112 -36 -66 -13 -86 -35 -37 -41 14 -2
35 -15 47 -31 20 -26 21 -44 25 -245 2 -137 -1 -229 -8 -252 -12 -41 -42 -60
-96 -60 -24 0 -35 -5 -35 -15 0 -13 31 -15 210 -15 178 1 210 3 210 15 0 9
-10 15 -25 15 -34 0 -81 25 -90 47 -5 10 -10 109 -13 220 l-4 202 36 49 c68
94 110 102 159 32 22 -30 35 -40 56 -40 50 0 77 50 61 111 -30 111 -176 86
-268 -47 -20 -29 -39 -53 -42 -54 -3 0 -3 27 -2 61 4 63 -3 110 -16 108 -4 0
-29 -11 -56 -24z"/>
<path d="M5480 5914 c0 -7 12 -15 27 -19 32 -8 53 -23 53 -38 0 -6 -56 -67
-125 -137 l-126 -127 125 -161 c113 -147 123 -163 106 -172 -10 -5 -28 -10
-39 -10 -12 0 -21 -6 -21 -13 0 -10 41 -13 180 -14 141 -1 180 2 180 12 0 7
-15 16 -33 19 -49 9 -139 108 -327 359 l-43 58 64 65 c92 93 163 146 217 159
25 7 48 17 50 23 3 9 -37 11 -142 9 -101 -1 -146 -5 -146 -13z"/>
<path d="M6373 4705 c-39 -17 -63 -52 -70 -104 -4 -28 -11 -41 -27 -46 -21 -8
-21 -8 2 -12 21 -4 22 -9 22 -93 0 -74 -3 -91 -17 -99 -14 -8 -2 -10 47 -10
49 0 59 3 43 9 -22 9 -23 15 -23 100 l0 90 30 0 c17 0 30 4 30 9 0 4 -13 7
-30 5 l-30 -4 0 54 c0 38 6 61 19 77 17 21 21 22 46 11 29 -14 53 -3 41 17
-10 15 -44 13 -83 -4z"/>
<path d="M3450 4695 c-19 -7 -27 -14 -17 -14 15 -1 17 -16 17 -161 0 -141 -2
-160 -17 -169 -14 -8 -2 -10 47 -11 61 0 63 1 42 16 -16 11 -22 25 -22 55 0
21 3 39 8 38 4 0 22 -18 40 -41 25 -32 30 -44 21 -54 -10 -12 -1 -14 52 -13
53 0 60 2 42 11 -12 6 -43 37 -69 70 l-46 59 22 24 c12 13 36 30 54 39 l31 16
-50 0 c-36 0 -46 -3 -35 -10 12 -8 8 -17 -27 -52 l-43 -43 0 128 c0 70 -3 127
-7 126 -5 0 -24 -7 -43 -14z"/>
<path d="M3970 4695 c-19 -7 -27 -14 -17 -14 15 -1 17 -16 17 -161 0 -141 -2
-160 -17 -169 -14 -8 -2 -10 47 -10 56 0 63 1 48 13 -16 12 -18 33 -18 185 0
186 2 180 -60 156z"/>
<path d="M5276 4696 c-22 -10 -25 -14 -12 -19 14 -6 16 -28 16 -160 0 -150 -1
-154 -22 -165 -19 -9 -12 -11 42 -11 57 0 63 1 47 13 -15 12 -17 26 -15 92 3
75 4 79 30 88 46 16 58 -4 58 -95 0 -64 -3 -80 -17 -88 -14 -8 -2 -10 47 -10
54 0 61 2 43 11 -21 10 -23 18 -23 95 0 71 -3 86 -21 104 -24 24 -70 21 -101
-8 -17 -15 -18 -12 -18 75 0 99 -1 101 -54 78z"/>
<path d="M5925 4695 c-20 -9 -24 -14 -12 -14 14 -1 17 -11 17 -66 l0 -65 -24
11 c-34 16 -88 3 -116 -26 -45 -48 -34 -156 19 -185 28 -15 73 -12 99 6 20 14
22 14 22 0 0 -17 31 -20 64 -7 18 7 18 8 3 14 -15 6 -17 27 -17 177 0 184 1
181 -55 155z m-11 -151 c13 -5 16 -22 16 -85 0 -69 -2 -80 -21 -89 -50 -27
-99 21 -99 97 0 68 44 100 104 77z"/>
<path d="M7510 4698 c-29 -8 -32 -11 -17 -19 15 -9 17 -29 17 -164 0 -136 -2
-155 -17 -164 -14 -8 -2 -10 47 -10 62 0 64 1 43 16 -22 15 -23 21 -23 184 0
93 -3 169 -7 168 -5 0 -24 -5 -43 -11z"/>
<path d="M8166 4697 c-17 -12 -18 -20 -7 -97 6 -46 11 -105 11 -132 0 -26 5
-48 10 -48 6 0 10 19 10 41 0 23 5 82 12 131 10 76 10 91 -3 103 -13 13 -18
13 -33 2z"/>
<path d="M6472 4688 c-17 -17 -15 -47 4 -55 23 -9 51 23 38 44 -14 22 -27 26
-42 11z"/>
<path d="M4570 4606 c-8 -15 -28 -35 -45 -44 -28 -16 -29 -17 -7 -20 21 -3 22
-8 22 -91 0 -54 4 -91 12 -99 17 -17 83 -15 97 2 10 12 6 14 -21 13 l-33 -2
-3 88 -3 87 36 0 c19 0 35 5 35 10 0 6 -15 10 -34 10 -33 0 -35 2 -38 37 l-3
37 -15 -28z"/>
<path d="M2419 4562 l-87 -3 -4 -29 c-5 -37 -3 -37 25 -4 18 20 30 25 59 22
l37 -3 -70 -102 -70 -103 99 0 c95 0 100 1 106 23 11 41 6 50 -14 24 -16 -20
-30 -26 -75 -29 -30 -1 -55 -1 -55 1 0 2 13 20 28 40 39 50 115 162 110 164
-1 1 -42 1 -89 -1z"/>
<path d="M2613 4555 c-38 -16 -63 -60 -63 -111 0 -28 8 -44 34 -70 30 -30 40
-34 86 -34 46 0 56 4 86 34 26 26 34 42 34 70 0 98 -85 151 -177 111z m88 -5
c20 0 41 -64 37 -112 -6 -57 -30 -88 -70 -88 -55 0 -87 95 -53 160 17 33 44
52 63 45 8 -3 18 -5 23 -5z"/>
<path d="M2843 4563 c-32 -4 -47 -23 -19 -23 20 0 26 -23 26 -100 0 -60 -3
-71 -22 -84 -21 -15 -19 -16 47 -15 58 0 66 2 48 11 -20 10 -23 18 -23 78 0
53 4 71 20 88 17 18 24 20 40 10 27 -17 50 3 30 27 -19 23 -39 18 -70 -15
l-29 -31 2 27 c2 30 -3 32 -50 27z"/>
<path d="M3058 4563 c-35 -4 -55 -23 -24 -23 10 0 15 -22 18 -84 2 -49 10 -91
17 -100 17 -20 71 -21 97 -1 25 19 35 19 28 0 -4 -10 0 -15 12 -14 31 2 81 17
62 18 -16 1 -18 13 -18 99 0 54 -2 101 -4 103 -8 8 -96 -3 -96 -12 0 -5 9 -9
20 -9 18 0 20 -7 20 -73 0 -60 -4 -77 -19 -91 -13 -11 -27 -15 -40 -11 -19 6
-21 14 -21 106 0 54 -3 98 -7 97 -5 -1 -25 -3 -45 -5z"/>
<path d="M3743 4555 c-38 -16 -63 -60 -63 -111 0 -28 8 -44 34 -70 30 -30 40
-34 85 -34 41 0 56 5 81 28 61 53 48 152 -24 186 -41 19 -70 20 -113 1z m94
-19 c25 -22 28 -31 28 -84 0 -70 -21 -102 -67 -102 -68 0 -93 136 -34 187 34
29 38 29 73 -1z"/>
<path d="M4133 4555 c-31 -13 -50 -46 -38 -65 12 -19 26 -10 41 25 26 62 86
37 72 -30 -2 -9 -27 -26 -58 -38 -61 -24 -85 -62 -60 -91 14 -18 62 -21 90 -6
14 7 25 7 38 -1 11 -7 31 -9 45 -5 30 7 37 25 10 22 -16 -1 -19 11 -23 92 -5
99 -12 112 -60 111 -14 0 -39 -6 -57 -14z m71 -142 c-6 -40 -18 -53 -47 -53
-41 0 -32 54 14 77 36 19 39 16 33 -24z"/>
<path d="M4360 4550 c-21 -21 -26 -55 -11 -79 5 -7 31 -25 57 -40 38 -20 49
-31 49 -51 0 -45 -74 -39 -99 8 l-15 27 -1 -31 c0 -33 13 -44 51 -44 16 0 18
-3 9 -19 -14 -26 -13 -28 11 -34 35 -9 20 -42 -19 -42 -17 0 -32 -3 -32 -7 0
-14 77 -8 90 7 16 20 9 47 -17 61 -17 8 -20 13 -11 22 7 7 17 12 23 12 21 0
45 36 45 68 0 32 -14 45 -95 88 -28 15 -30 41 -5 54 17 9 26 8 46 -5 13 -8 24
-22 24 -30 0 -8 5 -15 11 -15 14 0 2 52 -14 62 -23 15 -77 8 -97 -12z"/>
<path d="M4713 4563 c-26 -5 -31 -23 -8 -23 24 0 22 -168 -2 -186 -16 -12 -9
-13 47 -13 62 0 64 1 43 16 -21 14 -23 23 -23 114 0 107 2 103 -57 92z"/>
<path d="M4858 4563 c-16 -2 -28 -9 -28 -14 0 -5 6 -8 13 -6 9 1 13 -22 15
-87 2 -75 0 -90 -15 -102 -16 -12 -10 -13 47 -13 65 -1 65 0 42 18 -21 16 -24
25 -22 82 4 103 1 129 -12 128 -7 -1 -25 -4 -40 -6z"/>
<path d="M4942 4547 c-27 -29 -29 -47 -3 -23 12 11 21 14 26 7 3 -6 15 -11 26
-11 15 0 20 6 17 23 -4 31 -39 33 -66 4z"/>
<path d="M5593 4560 c-34 -14 -63 -68 -63 -118 0 -91 99 -135 170 -76 17 15
29 29 26 31 -2 3 -14 -5 -25 -16 -36 -36 -89 -23 -116 29 -29 55 -23 60 65 60
44 0 80 2 80 5 0 3 -6 21 -14 40 -22 51 -67 67 -123 45z m67 -20 c11 -11 20
-29 20 -40 0 -18 -7 -20 -56 -20 -53 0 -55 1 -49 23 7 23 40 57 56 57 5 0 18
-9 29 -20z"/>
<path d="M6091 4545 c-85 -72 -50 -205 54 -205 42 0 95 29 95 52 0 7 -10 2
-23 -10 -13 -12 -33 -22 -46 -22 -31 0 -81 52 -81 84 0 26 1 26 75 26 69 0 75
2 75 21 0 11 -13 34 -29 50 -37 37 -79 38 -120 4z m75 7 c17 -11 36 -51 29
-62 -3 -6 -28 -10 -56 -10 -57 0 -64 16 -24 55 26 27 33 29 51 17z"/>
<path d="M6458 4563 c-29 -4 -39 -23 -13 -23 12 0 15 -17 15 -90 0 -74 -3 -91
-17 -99 -14 -8 -2 -10 47 -10 62 0 64 1 43 16 -21 14 -23 23 -23 114 0 73 -3
99 -12 98 -7 -1 -25 -4 -40 -6z"/>
<path d="M6608 4563 c-29 -4 -39 -23 -13 -23 12 0 15 -16 15 -88 0 -82 -2 -90
-22 -100 -19 -9 -12 -11 42 -11 57 0 63 1 47 13 -15 12 -17 26 -15 92 3 75 4
79 30 88 46 16 58 -4 58 -95 0 -64 -3 -80 -17 -88 -14 -8 -2 -10 47 -10 54 0
61 2 43 11 -21 10 -23 18 -23 95 0 71 -3 86 -21 104 -24 24 -70 21 -101 -8
-17 -15 -18 -15 -18 5 0 12 -6 21 -12 21 -7 -1 -25 -4 -40 -6z"/>
<path d="M6918 4554 c-36 -19 -58 -63 -58 -114 0 -60 41 -100 103 -100 35 0
50 6 71 27 14 14 24 28 22 30 -2 3 -14 -5 -25 -16 -38 -38 -93 -22 -117 34 -8
19 -14 39 -14 45 0 6 32 10 80 10 86 0 89 3 65 50 -26 50 -74 63 -127 34z m74
-11 c10 -9 18 -27 18 -40 0 -21 -4 -23 -55 -23 -30 0 -55 2 -55 5 0 4 7 19 15
35 22 42 48 50 77 23z"/>
<path d="M7238 4563 c-39 -4 -54 -23 -18 -23 18 0 20 -7 20 -81 0 -44 5 -89
10 -100 13 -24 75 -26 108 -3 20 14 22 14 22 -2 0 -12 6 -15 23 -10 12 3 31 6
42 6 18 1 19 1 3 11 -15 8 -18 25 -18 111 0 87 -2 99 -16 94 -9 -3 -29 -6 -45
-6 -16 0 -29 -4 -29 -10 0 -5 9 -10 20 -10 19 0 21 -5 18 -77 -3 -72 -5 -78
-30 -92 -22 -13 -29 -13 -42 -2 -13 11 -16 34 -16 107 0 52 -3 93 -7 92 -5 -1
-25 -3 -45 -5z"/>
<path d="M7673 4550 c-19 -11 -33 -28 -33 -39 0 -37 34 -34 41 3 5 24 32 41
53 33 11 -4 16 -19 16 -46 0 -35 -3 -40 -28 -46 -48 -10 -92 -43 -92 -68 0
-13 5 -28 12 -35 15 -15 63 -16 88 -2 14 7 25 7 38 -1 11 -7 31 -9 45 -5 30 7
37 25 10 22 -16 -1 -18 10 -21 84 -3 96 -16 120 -66 120 -17 0 -46 -9 -63 -20z
m65 -181 c-21 -14 -48 -10 -55 7 -8 21 7 46 38 61 23 12 24 11 27 -24 2 -22
-2 -39 -10 -44z"/>
<path d="M7892 4547 c-40 -42 -28 -77 39 -113 69 -38 79 -84 19 -84 -29 0 -37
5 -65 45 -14 19 -14 19 -15 -11 0 -26 5 -33 25 -38 21 -5 24 -10 15 -26 -14
-25 -13 -27 11 -33 35 -9 20 -42 -19 -42 -17 0 -32 -3 -32 -7 0 -14 77 -8 90
7 16 20 9 47 -17 60 -26 13 -17 30 16 32 56 4 81 73 41 113 -11 11 -35 26 -55
34 -43 18 -55 44 -30 62 27 20 33 18 68 -18 l30 -33 -7 30 c-9 36 -21 45 -62
45 -19 0 -39 -9 -52 -23z"/>
<path d="M5015 4400 c-11 -17 4 -60 20 -60 19 0 19 -10 -1 -38 -23 -33 -10
-38 15 -6 27 34 37 72 24 93 -12 19 -49 26 -58 11z"/>
<path d="M8154 4385 c-9 -23 3 -45 25 -45 23 0 35 28 20 46 -15 18 -38 18 -45
-1z"/>
</g>
</svg>
