<?xml version="1.0" standalone="no"?>
<!DOCTYPE svg PUBLIC "-//W3C//DTD SVG 20010904//EN"
 "http://www.w3.org/TR/2001/REC-SVG-20010904/DTD/svg10.dtd">
<svg version="1.0" xmlns="http://www.w3.org/2000/svg"
 width="1024.000000pt" height="1024.000000pt" viewBox="0 0 1024.000000 1024.000000"
 preserveAspectRatio="xMidYMid meet">

<g transform="translate(0.000000,1024.000000) scale(0.100000,-0.100000)"
fill="#000000" stroke="none">
<path d="M4815 9279 c-736 -59 -1473 -350 -2040 -805 -222 -178 -497 -466
-677 -709 -298 -403 -525 -915 -628 -1419 -32 -156 -25 -213 35 -283 88 -103
247 -112 343 -20 46 43 61 75 77 163 52 267 158 580 282 829 242 484 636 929
1085 1226 423 280 925 468 1418 531 161 20 699 17 860 -5 644 -90 1221 -353
1722 -785 179 -155 348 -343 505 -562 221 -309 414 -739 503 -1120 45 -195 51
-215 76 -247 45 -59 98 -87 175 -91 81 -5 140 18 188 74 39 44 64 129 56 186
-75 516 -355 1152 -713 1618 -571 742 -1458 1254 -2407 1389 -275 39 -605 51
-860 30z"/>
<path d="M3685 7425 c-243 -45 -451 -147 -615 -301 -433 -409 -495 -1083 -146
-1599 89 -132 322 -334 444 -384 18 -7 32 -17 32 -21 0 -4 -26 -13 -57 -20
-89 -19 -268 -87 -377 -143 -322 -165 -596 -410 -796 -712 -160 -244 -260
-496 -321 -815 -21 -108 -23 -146 -26 -650 l-3 -535 27 -50 c16 -28 47 -62 71
-80 l44 -30 3011 -3 c2187 -2 3023 0 3050 8 54 16 120 84 136 140 9 34 11 164
9 535 -4 457 -6 498 -26 603 -31 156 -74 286 -142 427 -76 159 -160 275 -305
421 -161 162 -297 250 -543 355 l-33 14 61 44 c80 59 191 176 246 261 104 161
153 319 161 520 12 297 -71 532 -268 754 -105 119 -322 245 -494 288 -117 29
-343 32 -450 6 -214 -52 -373 -142 -512 -292 -197 -210 -284 -453 -270 -755
14 -330 170 -622 426 -801 l33 -23 -108 -52 c-126 -60 -223 -120 -310 -192
l-61 -51 -54 71 c-114 151 -330 351 -514 474 -142 94 -365 199 -520 243 -44
12 -91 26 -105 30 -23 6 -20 9 40 40 36 18 93 53 127 77 494 352 666 1011 404
1548 -160 330 -420 539 -786 631 -128 33 -357 41 -480 19z m343 -461 c328 -66
572 -372 574 -719 0 -129 -22 -225 -79 -345 -40 -82 -58 -107 -142 -190 -78
-78 -112 -104 -181 -138 -116 -57 -193 -76 -315 -76 -121 1 -201 20 -310 74
-362 178 -509 638 -324 1015 146 298 449 446 777 379z m2681 -959 c254 -60
438 -320 418 -589 -22 -283 -217 -489 -492 -520 -206 -24 -428 102 -524 297
-43 89 -61 165 -61 263 0 91 16 158 62 254 110 231 356 352 597 295z m-2545
-1330 c161 -32 256 -64 401 -135 251 -123 462 -300 624 -524 l61 -84 -49 -84
c-61 -104 -114 -230 -146 -350 -44 -163 -55 -290 -55 -634 l0 -314 -1361 0
-1361 0 5 358 c3 275 8 377 21 442 69 354 227 650 482 903 129 127 229 198
399 282 239 118 427 163 694 164 136 1 183 -3 285 -24z m2617 -491 c243 -42
452 -155 631 -342 127 -133 218 -304 274 -512 27 -103 28 -111 32 -442 l4
-338 -1137 0 -1137 0 5 333 c4 317 5 337 30 433 14 55 44 142 66 193 134 308
420 563 727 647 163 44 349 55 505 28z"/>
</g>
</svg>
